<svg width="18" height="18" viewBox="0 0 18 18" fill="none" xmlns="http://www.w3.org/2000/svg">
<path d="M15.2314 8.49121C15.2314 4.76848 12.2139 1.7502 8.49121 1.75C4.76835 1.75 1.75 4.76835 1.75 8.49121C1.7502 12.2139 4.76848 15.2314 8.49121 15.2314C12.2138 15.2312 15.2312 12.2138 15.2314 8.49121ZM16.7314 8.49121C16.7312 13.0422 13.0422 16.7312 8.49121 16.7314C3.94005 16.7314 0.250204 13.0423 0.25 8.49121C0.25 3.93992 3.93992 0.25 8.49121 0.25C13.0423 0.250204 16.7314 3.94005 16.7314 8.49121Z" fill="#1A1A1A"/>
<path d="M17.1668 16.488C17.4597 16.7806 17.4602 17.2554 17.1678 17.5485C16.8752 17.8418 16.4005 17.842 16.1072 17.5495L17.1668 16.488ZM13.1687 13.5603C13.443 13.2853 13.8778 13.2675 14.1726 13.5075L14.2293 13.5583L17.1668 16.488L16.6365 17.0183L16.1072 17.5495L13.1707 14.6208L13.1189 14.5632C12.8786 14.269 12.8949 13.8352 13.1687 13.5603Z" fill="#1A1A1A"/>
</svg>
