<svg width="14" height="17" viewBox="0 0 14 17" fill="none" xmlns="http://www.w3.org/2000/svg">
<path d="M9.36728 9.56738C10.6867 9.56747 11.9516 10.171 12.6856 11.0654C13.0568 11.5178 13.3102 12.0681 13.3321 12.6689C13.3516 13.2034 13.1856 13.7319 12.8302 14.2148L12.6661 14.4189C11.4942 15.7597 9.6075 16.6005 6.86728 16.6006C4.2983 16.6006 2.47816 15.8621 1.29501 14.665L1.06649 14.4189C0.598298 13.8831 0.379082 13.2797 0.401456 12.6689C0.423486 12.0681 0.676693 11.5179 1.04794 11.0654C1.78202 10.1709 3.04723 9.56738 4.36728 9.56738H9.36728ZM4.36728 10.7666C3.38565 10.7666 2.46889 11.2261 1.97567 11.8271C1.73346 12.1224 1.61111 12.4282 1.60067 12.7129C1.59061 12.9876 1.68219 13.2997 1.97079 13.6299L2.14462 13.8174C3.05231 14.7372 4.5335 15.4004 6.86728 15.4004C9.35662 15.4003 10.8748 14.6457 11.7628 13.6299L11.8624 13.5068C12.073 13.2222 12.1416 12.9532 12.1329 12.7129C12.1225 12.4281 12.0003 12.1215 11.7579 11.8262C11.2647 11.2253 10.3484 10.7667 9.36728 10.7666H4.36728Z" fill="#00B307"/>
<path d="M9.59985 4.33301C9.59968 2.82358 8.37593 1.59961 6.86646 1.59961C5.35713 1.59979 4.13323 2.82369 4.13306 4.33301C4.13306 5.84248 5.35703 7.06623 6.86646 7.06641C8.37603 7.06641 9.59985 5.84259 9.59985 4.33301ZM10.8 4.33301C10.8 6.50533 9.03878 8.2666 6.86646 8.2666C4.69428 8.26643 2.93384 6.50522 2.93384 4.33301C2.93401 2.16095 4.69439 0.400567 6.86646 0.400391C9.03867 0.400391 10.7999 2.16084 10.8 4.33301Z" fill="#00B307"/>
</svg>
