<svg width="16" height="14" viewBox="0 0 16 14" fill="none" xmlns="http://www.w3.org/2000/svg">
<path d="M1.59961 10.5254H5.74414C5.89459 10.5253 6.0431 10.5541 6.18164 10.6104L6.31641 10.6758L6.44238 10.7578C6.52208 10.8176 6.59338 10.8877 6.65527 10.9658L6.74121 11.0889L7.75 12.7705L8.75977 11.0889L8.84473 10.9658C8.93758 10.8486 9.05261 10.7499 9.18359 10.6758L9.31836 10.6104C9.45683 10.5541 9.60546 10.5254 9.75586 10.5254H13.9004V1.59961H1.59961V10.5254ZM15.0996 10.5625C15.0996 10.8708 14.9778 11.1668 14.7598 11.3848C14.5418 11.6028 14.2458 11.7246 13.9375 11.7246H9.77734L8.74609 13.4424C8.64282 13.6144 8.49688 13.7566 8.32227 13.8555C8.14766 13.9543 7.95066 14.0068 7.75 14.0068C7.54925 14.0068 7.35145 13.9544 7.17676 13.8555C7.04577 13.7812 6.9307 13.6828 6.83789 13.5654L6.75293 13.4424L5.72266 11.7246H1.5625C1.25419 11.7246 0.958246 11.6028 0.740234 11.3848C0.522223 11.1668 0.400391 10.8708 0.400391 10.5625V1.5625C0.400391 1.25419 0.522224 0.958245 0.740234 0.740234L0.826172 0.663086C1.03298 0.493767 1.29287 0.400391 1.5625 0.400391H13.9375C14.2071 0.400391 14.467 0.493767 14.6738 0.663086L14.7598 0.740234L14.8369 0.826172C15.0062 1.03298 15.0996 1.29287 15.0996 1.5625V10.5625Z" fill="#00B307"/>
</svg>
