<svg width="18" height="18" viewBox="0 0 18 18" fill="none" xmlns="http://www.w3.org/2000/svg">
<path d="M16.376 9.33301C16.3759 9.05178 16.2654 8.78171 16.0674 8.58203L9.08496 1.59961H1.59961V9.08398L8.58301 16.0596L8.66016 16.1299C8.74109 16.1964 8.83161 16.2507 8.92871 16.291C9.0582 16.3447 9.19771 16.3721 9.33789 16.3721C9.47794 16.372 9.61672 16.3446 9.74609 16.291C9.87543 16.2374 9.99281 16.1586 10.0918 16.0596L16.0674 10.084C16.2652 9.88426 16.376 9.6142 16.376 9.33301ZM17.5762 9.33301C17.5762 9.93183 17.3392 10.507 16.917 10.9316L16.4912 10.5088L16.916 10.9326L10.9414 16.9072C10.7309 17.118 10.4802 17.2853 10.2051 17.3994C9.93013 17.5133 9.6355 17.5722 9.33789 17.5723C9.04009 17.5723 8.74484 17.5134 8.46973 17.3994C8.19486 17.2855 7.94474 17.1186 7.73438 16.9082L0.576172 9.75781C0.463499 9.64527 0.400391 9.49226 0.400391 9.33301V1L0.412109 0.878906C0.468115 0.605571 0.710104 0.400391 1 0.400391H9.33301L9.45117 0.412109C9.56638 0.435204 9.6735 0.491858 9.75781 0.576172L16.917 7.73535L17.0664 7.90137C17.3946 8.30397 17.5761 8.80909 17.5762 9.33301Z" fill="#00B307"/>
<path d="M5.17554 4.41699L5.25171 4.4209C5.62993 4.45928 5.92554 4.77865 5.92554 5.16699C5.92554 5.55534 5.62993 5.8747 5.25171 5.91309L5.17554 5.91699H5.16675C4.75253 5.91699 4.41675 5.58121 4.41675 5.16699C4.41675 4.75278 4.75253 4.41699 5.16675 4.41699H5.17554Z" fill="#00B307"/>
</svg>
