<svg width="15" height="17" viewBox="0 0 15 17" fill="none" xmlns="http://www.w3.org/2000/svg">
<path d="M14 4C14 3.44772 13.5523 3 13 3H2.5C1.94772 3 1.5 3.44772 1.5 4V14.5C1.5 15.0523 1.94772 15.5 2.5 15.5H13C13.5523 15.5 14 15.0523 14 14.5V4ZM15 14.5C15 15.6046 14.1046 16.5 13 16.5H2.5C1.39543 16.5 0.500002 15.6046 0.5 14.5V4C0.5 2.89543 1.39543 2 2.5 2H13C14.1046 2 15 2.89543 15 4V14.5Z" fill="#00B307"/>
<path d="M10.25 4V1C10.25 0.723858 10.4739 0.5 10.75 0.5C11.0261 0.5 11.25 0.723858 11.25 1V4C11.25 4.27614 11.0261 4.5 10.75 4.5C10.4739 4.5 10.25 4.27614 10.25 4Z" fill="#00B307"/>
<path d="M4.25 4V1C4.25 0.723858 4.47386 0.5 4.75 0.5C5.02614 0.5 5.25 0.723858 5.25 1V4C5.25 4.27614 5.02614 4.5 4.75 4.5C4.47386 4.5 4.25 4.27614 4.25 4Z" fill="#00B307"/>
<path d="M14.5 6.5C14.7761 6.5 15 6.72386 15 7C15 7.27614 14.7761 7.5 14.5 7.5H1C0.723858 7.5 0.5 7.27614 0.5 7C0.5 6.72386 0.723858 6.5 1 6.5H14.5Z" fill="#00B307"/>
</svg>
