<svg width="17" height="14" viewBox="0 0 17 14" fill="none" xmlns="http://www.w3.org/2000/svg">
<path d="M16 6.27539C16.4142 6.27539 16.75 6.61118 16.75 7.02539C16.75 7.4396 16.4142 7.77539 16 7.77539H1C0.585786 7.77539 0.25 7.4396 0.25 7.02539C0.25 6.61118 0.585786 6.27539 1 6.27539H16Z" fill="white"/>
<path d="M9.41868 0.470619C9.69258 0.195707 10.1266 0.177623 10.4216 0.416908L10.4792 0.468666L16.529 6.4921C16.6704 6.63284 16.7497 6.82487 16.7497 7.02433C16.7497 7.17378 16.7057 7.31892 16.6238 7.44132L16.529 7.55558L10.4792 13.58C10.1857 13.8723 9.71097 13.8715 9.41868 13.578C9.12641 13.2846 9.12717 12.8098 9.42064 12.5175L14.9363 7.02335L9.42064 1.53117L9.36888 1.47452C9.1281 1.18046 9.14473 0.745755 9.41868 0.470619Z" fill="white"/>
</svg>
